<?xml version="1.0" standalone="no"?>
<!DOCTYPE svg PUBLIC "-//W3C//DTD SVG 20010904//EN"
 "http://www.w3.org/TR/2001/REC-SVG-20010904/DTD/svg10.dtd">
<svg version="1.0" xmlns="http://www.w3.org/2000/svg"
 width="700.000000pt" height="700.000000pt" viewBox="0 0 700.000000 700.000000"
 preserveAspectRatio="xMidYMid meet">
<metadata>
Created by potrace 1.14, written by Peter Selinger 2001-2017
</metadata>
<g transform="translate(0.000000,700.000000) scale(0.100000,-0.100000)"
fill="#000000" stroke="none">
<path d="M3220 6994 c-19 -2 -78 -9 -130 -15 -876 -100 -1701 -545 -2271
-1224 -436 -521 -692 -1103 -796 -1810 -14 -95 -18 -187 -18 -445 0 -348 7
-419 61 -695 153 -768 573 -1475 1179 -1986 451 -379 991 -640 1560 -753 276
-54 347 -61 695 -61 346 0 409 6 694 61 662 129 1289 466 1781 959 579 578
923 1303 1011 2127 22 212 15 635 -15 828 -111 722 -383 1313 -847 1840 -552
627 -1288 1023 -2144 1151 -107 17 -197 21 -430 24 -162 2 -311 1 -330 -1z
m-164 -858 c148 -69 272 -357 333 -775 17 -117 18 -171 11 -764 -4 -351 -10
-640 -12 -642 -7 -7 -585 1048 -866 1580 -169 321 -195 426 -126 512 54 66
112 83 344 102 199 16 260 13 316 -13z m1179 -825 c353 -179 667 -478 763
-727 44 -115 56 -189 49 -307 -9 -160 -78 -397 -116 -397 -10 0 -42 12 -72 27
-42 20 -111 83 -313 285 l-259 258 7 93 c3 50 9 111 12 133 l6 41 -73 11 c-41
6 -77 8 -81 4 -7 -7 -264 -692 -314 -838 l-28 -81 18 -48 c13 -33 43 -72 100
-129 65 -65 103 -118 191 -261 125 -205 130 -224 83 -327 -32 -69 -81 -108
-176 -138 -36 -12 -78 -30 -93 -41 -31 -22 -59 -76 -59 -113 0 -25 111 -366
275 -846 75 -221 93 -291 105 -407 16 -154 -23 -284 -116 -383 -39 -41 -58
-53 -113 -70 -283 -83 -713 -128 -1136 -117 -171 4 -214 8 -296 30 -107 28
-164 54 -195 89 -37 39 -125 227 -140 297 -7 36 -14 106 -14 155 l0 88 38 -6
c158 -26 167 -20 189 103 27 161 81 299 166 426 56 84 210 233 355 343 68 52
130 107 140 125 13 24 17 54 16 117 -1 75 -8 106 -61 270 -73 222 -78 255 -59
347 32 155 130 280 270 348 46 22 126 47 207 66 73 16 133 31 134 32 2 2 55
183 61 208 3 9 13 19 22 21 15 4 19 28 30 179 20 298 73 597 163 924 46 168
67 223 99 255 33 33 93 23 215 -39z"/>
</g>
</svg>
