<?xml version="1.0" standalone="no"?>
<!DOCTYPE svg PUBLIC "-//W3C//DTD SVG 20010904//EN"
 "http://www.w3.org/TR/2001/REC-SVG-20010904/DTD/svg10.dtd">
<svg version="1.0" xmlns="http://www.w3.org/2000/svg"
 width="396.000000pt" height="396.000000pt" viewBox="0 0 396.000000 396.000000"
 preserveAspectRatio="xMidYMid meet">
<metadata>
Created by potrace 1.14, written by Peter Selinger 2001-2017
</metadata>
<g transform="translate(0.000000,396.000000) scale(0.100000,-0.100000)"
fill="#000000" stroke="none">
<path d="M1760 3953 c-19 -2 -83 -13 -142 -23 -394 -74 -741 -256 -1029 -540
-330 -326 -523 -719 -580 -1183 -17 -145 -7 -454 20 -589 124 -621 499 -1120
1054 -1404 282 -144 574 -214 897 -214 996 0 1836 736 1966 1723 22 169 15
469 -15 619 -82 407 -257 741 -541 1029 -318 322 -691 510 -1142 574 -94 13
-391 18 -488 8z m-23 -444 c157 -59 247 -416 268 -1069 7 -222 14 -300 26
-300 22 0 42 83 56 225 7 83 20 191 29 240 17 101 79 351 99 399 34 80 90 89
202 33 121 -62 192 -114 304 -227 130 -131 191 -272 174 -404 -9 -70 -43 -196
-61 -223 -18 -28 -61 -30 -107 -7 -18 9 -101 85 -185 168 l-153 151 2 67 c1
38 -2 68 -7 69 -9 1 -183 -454 -184 -480 0 -8 20 -33 44 -56 43 -40 155 -207
183 -273 12 -29 12 -41 -2 -87 -17 -61 -61 -105 -124 -123 -21 -7 -45 -20 -54
-30 -15 -17 -10 -39 90 -337 91 -273 107 -332 111 -400 5 -94 -7 -144 -48
-207 -38 -57 -82 -80 -210 -107 -171 -36 -510 -57 -643 -40 -89 12 -190 44
-210 67 -32 36 -88 160 -98 217 -12 67 -7 128 12 151 10 12 24 14 59 9 l46 -6
13 63 c34 168 118 289 286 416 113 84 113 85 54 269 -46 143 -47 194 -8 282
25 58 106 134 165 157 40 15 45 20 39 41 -3 14 -52 108 -109 211 -156 282
-356 652 -426 789 -49 96 -63 133 -67 181 -10 104 41 155 167 171 97 12 235
12 267 0z"/>
</g>
</svg>
