<?xml version="1.0" standalone="no"?>
<!DOCTYPE svg PUBLIC "-//W3C//DTD SVG 20010904//EN"
 "http://www.w3.org/TR/2001/REC-SVG-20010904/DTD/svg10.dtd">
<svg version="1.0" xmlns="http://www.w3.org/2000/svg"
 width="1800.000000pt" height="1800.000000pt" viewBox="0 0 1800.000000 1800.000000"
 preserveAspectRatio="xMidYMid meet">
<metadata>
Created by potrace 1.14, written by Peter Selinger 2001-2017
</metadata>
<g transform="translate(0.000000,1800.000000) scale(0.100000,-0.100000)"
fill="#000000" stroke="none">
<path d="M10185 17610 c-3 -5 -26 -10 -49 -10 -28 0 -48 -6 -57 -16 -7 -9 -23
-20 -35 -24 -28 -11 -54 -63 -54 -107 0 -18 -6 -42 -12 -53 -10 -16 -10 -24 0
-40 6 -11 12 -38 12 -59 0 -22 5 -43 10 -46 6 -3 10 -14 10 -24 0 -19 39 -100
60 -126 22 -26 100 -188 100 -206 0 -10 5 -21 10 -24 6 -3 10 -17 10 -30 0
-13 5 -27 10 -30 6 -3 10 -17 10 -30 0 -13 5 -27 10 -30 6 -3 10 -21 10 -40 0
-19 5 -37 10 -40 6 -3 10 -21 10 -40 0 -19 5 -37 10 -40 6 -3 10 -21 10 -40 0
-19 5 -37 10 -40 6 -3 10 -30 10 -60 0 -30 5 -57 10 -60 6 -3 10 -30 10 -60 0
-30 5 -57 10 -60 6 -3 10 -35 10 -70 0 -35 5 -67 10 -70 6 -3 10 -35 10 -70 0
-35 5 -67 10 -70 6 -3 10 -35 10 -70 0 -35 5 -67 10 -70 6 -4 10 -127 10 -336
0 -280 -2 -329 -14 -329 -8 0 -18 5 -21 10 -3 6 -24 10 -46 10 -21 0 -48 6
-59 12 -16 10 -24 10 -40 0 -11 -6 -31 -12 -45 -12 -48 0 -135 -68 -135 -106
0 -13 -4 -26 -10 -29 -5 -3 -10 -37 -10 -75 0 -38 5 -72 10 -75 6 -3 10 -18
10 -33 0 -15 13 -54 29 -87 28 -59 40 -121 61 -305 17 -151 29 -471 19 -498
-5 -13 -9 -41 -9 -62 0 -21 -4 -42 -10 -45 -5 -3 -10 -35 -10 -70 0 -35 -4
-67 -10 -70 -6 -3 -10 -52 -10 -110 0 -58 -4 -107 -10 -110 -6 -4 -10 -87 -10
-215 0 -128 4 -211 10 -215 6 -3 10 -30 10 -60 0 -30 5 -57 10 -60 6 -3 10
-33 10 -65 0 -32 -4 -62 -10 -65 -6 -4 -10 -53 -10 -115 0 -62 4 -111 10 -115
6 -3 10 -16 10 -29 0 -12 4 -26 9 -31 22 -23 36 -240 36 -572 0 -260 -3 -345
-12 -354 -7 -7 -13 -37 -13 -65 0 -29 -4 -56 -10 -59 -6 -3 -10 -48 -10 -100
0 -52 -4 -97 -10 -100 -15 -9 -13 -690 2 -714 17 -27 3 -51 -30 -51 -56 0
-202 -98 -202 -136 0 -6 -7 -17 -15 -24 -16 -14 -65 -108 -65 -127 0 -7 -9
-28 -20 -48 -11 -20 -20 -44 -20 -55 0 -10 -4 -22 -10 -25 -5 -3 -10 -17 -10
-30 0 -13 -5 -27 -10 -30 -5 -3 -10 -17 -10 -30 0 -13 -4 -27 -10 -30 -5 -3
-10 -21 -10 -40 0 -19 -4 -37 -10 -40 -5 -3 -10 -21 -10 -40 0 -19 -4 -37 -10
-40 -5 -3 -10 -21 -10 -40 0 -19 -4 -37 -10 -40 -5 -3 -10 -26 -10 -50 0 -24
-4 -47 -10 -50 -5 -3 -10 -26 -10 -50 0 -24 -4 -47 -10 -50 -5 -3 -10 -26 -10
-50 0 -24 -5 -47 -10 -50 -5 -3 -10 -26 -10 -50 0 -24 -4 -47 -10 -50 -6 -3
-10 -48 -10 -100 0 -52 -4 -97 -10 -100 -5 -3 -10 -24 -10 -45 0 -36 -4 -41
-42 -62 -50 -26 -165 -31 -192 -9 -12 10 -39 12 -102 8 l-86 -5 -40 36 c-22
19 -46 48 -54 64 -8 16 -30 106 -49 200 -29 142 -35 193 -35 299 0 74 -4 130
-10 134 -5 3 -10 44 -10 90 0 46 -4 87 -10 90 -5 3 -10 39 -10 80 0 41 -4 77
-10 80 -6 4 -10 110 -10 285 0 175 4 281 10 285 6 4 10 77 10 185 0 108 -4
181 -10 185 -6 4 -10 62 -10 140 0 78 -4 136 -10 140 -5 3 -10 35 -10 70 0 35
-4 67 -10 70 -5 3 -10 21 -10 40 0 19 -4 37 -10 40 -5 3 -10 16 -10 29 0 13
-9 31 -20 41 -11 10 -20 23 -20 29 0 14 -75 85 -107 104 -13 6 -32 12 -42 12
-11 0 -23 5 -26 10 -3 6 -42 10 -85 10 -43 0 -82 -4 -85 -10 -3 -5 -19 -10
-36 -10 -16 0 -39 -6 -52 -12 -32 -18 -207 -190 -207 -204 0 -6 -6 -17 -14
-24 -17 -13 -106 -189 -106 -207 0 -7 -9 -28 -20 -48 -11 -20 -20 -44 -20 -55
0 -10 -4 -22 -10 -25 -5 -3 -10 -17 -10 -30 0 -13 -4 -27 -10 -30 -5 -3 -10
-21 -10 -40 0 -19 -4 -37 -10 -40 -5 -3 -10 -21 -10 -40 0 -19 -4 -37 -10 -40
-5 -3 -10 -17 -10 -30 0 -13 -4 -27 -10 -30 -5 -3 -10 -21 -10 -40 0 -19 -4
-37 -10 -40 -5 -3 -10 -26 -10 -50 0 -24 -4 -47 -10 -50 -5 -3 -10 -26 -10
-50 0 -24 -4 -47 -10 -50 -5 -3 -10 -35 -10 -70 0 -35 -4 -67 -10 -70 -5 -3
-10 -46 -10 -96 0 -53 -4 -89 -10 -89 -5 0 -10 9 -10 19 0 11 -4 23 -10 26 -5
3 -10 21 -10 40 0 19 -4 37 -10 40 -5 3 -10 21 -10 40 0 19 -4 37 -10 40 -5 3
-10 17 -10 30 0 13 -4 27 -10 30 -5 3 -10 17 -10 30 0 13 -4 27 -10 30 -5 3
-10 17 -10 30 0 13 -4 27 -10 30 -5 3 -10 17 -10 30 0 13 -4 27 -10 30 -5 3
-10 17 -10 30 0 13 -4 27 -10 30 -5 3 -10 17 -10 30 0 13 -4 27 -10 30 -5 3
-10 17 -10 30 0 13 -4 27 -10 30 -5 3 -10 17 -10 30 0 13 -4 27 -10 30 -5 3
-10 17 -10 30 0 13 -4 27 -10 30 -5 3 -10 17 -10 30 0 13 -4 27 -10 30 -5 3
-10 15 -10 25 0 11 -9 35 -20 55 -11 20 -20 42 -20 50 0 8 -9 30 -20 50 -11
20 -20 41 -20 49 0 16 -43 101 -62 124 -8 9 -22 33 -31 52 -8 19 -27 46 -41
59 -14 14 -26 29 -26 35 0 7 -35 46 -78 89 -82 82 -190 147 -243 147 -15 0
-31 5 -34 10 -3 6 -33 10 -65 10 -32 0 -62 -4 -65 -10 -3 -5 -19 -10 -35 -10
-15 0 -54 -13 -85 -30 -69 -36 -83 -37 -95 -6 -5 13 -14 27 -19 31 -6 3 -20
25 -30 48 -11 23 -33 55 -50 71 -17 16 -40 55 -52 85 -56 147 -89 256 -89 296
0 24 -4 47 -10 50 -5 3 -10 26 -10 50 0 24 -4 47 -10 50 -5 3 -10 26 -10 50 0
24 -4 47 -10 50 -5 3 -10 26 -10 50 0 24 -4 47 -10 50 -5 3 -10 21 -10 40 0
19 -4 37 -10 40 -6 3 -10 21 -10 40 0 19 -4 37 -10 40 -5 3 -10 17 -10 30 0
13 -4 27 -10 30 -5 3 -10 17 -10 30 0 13 -4 27 -10 30 -6 3 -10 17 -10 30 0
13 -4 27 -10 30 -5 3 -10 15 -10 25 0 11 -9 35 -20 55 -11 20 -20 41 -20 49 0
16 -43 101 -62 124 -8 9 -22 33 -31 52 -35 76 -200 210 -258 210 -10 0 -21 5
-24 10 -3 6 -42 10 -85 10 -43 0 -82 -4 -85 -10 -3 -5 -14 -10 -24 -10 -61 0
-243 -152 -281 -236 -11 -22 -26 -47 -35 -54 -8 -7 -15 -23 -15 -36 0 -12 -4
-26 -10 -29 -5 -3 -10 -17 -10 -30 0 -13 -4 -27 -10 -30 -5 -3 -10 -17 -10
-30 0 -13 -4 -27 -10 -30 -5 -3 -10 -15 -10 -25 0 -11 -9 -35 -20 -55 -11 -20
-20 -44 -20 -55 0 -10 -4 -22 -10 -25 -5 -3 -10 -17 -10 -30 0 -13 -4 -27 -10
-30 -5 -3 -10 -17 -10 -30 0 -13 -4 -27 -10 -30 -5 -3 -10 -17 -10 -30 0 -13
-4 -27 -10 -30 -5 -3 -10 -21 -10 -40 0 -19 -4 -37 -10 -40 -5 -3 -10 -17 -10
-30 0 -13 -4 -27 -10 -30 -5 -3 -10 -17 -10 -30 0 -13 -4 -27 -10 -30 -5 -3
-10 -21 -10 -40 0 -19 -4 -37 -10 -40 -5 -3 -10 -17 -10 -30 0 -13 -4 -27 -10
-30 -5 -3 -10 -21 -10 -40 0 -19 -5 -37 -10 -40 -6 -3 -10 -26 -10 -50 0 -24
-5 -47 -10 -50 -5 -3 -10 -26 -10 -50 0 -24 -4 -47 -10 -50 -5 -3 -10 -30 -10
-60 0 -30 -4 -57 -10 -60 -6 -3 -10 -34 -10 -69 0 -34 -4 -66 -9 -71 -6 -6
-11 -32 -13 -60 l-3 -50 -29 60 c-16 33 -36 68 -44 77 -18 22 -262 509 -262
524 0 7 -13 38 -30 69 -16 31 -30 63 -30 71 0 7 -9 29 -20 49 -11 20 -20 42
-20 50 0 8 -9 30 -20 50 -11 20 -20 44 -20 55 0 10 -4 22 -10 25 -6 3 -10 15
-10 25 0 11 -9 35 -20 55 -11 20 -20 42 -20 50 0 8 -9 30 -20 50 -11 20 -20
42 -20 50 0 8 -9 30 -20 50 -11 20 -20 42 -20 49 0 17 -28 74 -41 81 -5 4 -18
25 -29 49 -10 23 -26 49 -35 56 -8 7 -15 18 -15 25 0 17 -109 135 -125 135 -7
0 -18 7 -25 15 -18 22 -111 65 -141 65 -15 0 -31 5 -34 10 -3 6 -42 10 -85 10
-43 0 -82 -4 -85 -10 -3 -5 -19 -10 -34 -10 -46 0 -123 -46 -189 -113 -61 -62
-112 -142 -112 -178 0 -10 -4 -21 -10 -24 -5 -3 -10 -17 -10 -30 0 -13 -4 -27
-10 -30 -5 -3 -10 -17 -10 -30 0 -13 -4 -27 -10 -30 -5 -3 -10 -17 -10 -30 0
-13 -4 -27 -10 -30 -5 -3 -10 -21 -10 -40 0 -19 -4 -37 -10 -40 -5 -3 -10 -21
-10 -40 0 -19 -4 -37 -10 -40 -5 -3 -10 -26 -10 -50 0 -24 -4 -47 -10 -50 -5
-3 -10 -26 -10 -50 0 -24 -4 -47 -10 -50 -5 -3 -10 -26 -10 -50 0 -24 -4 -47
-10 -50 -5 -3 -10 -26 -10 -50 0 -24 -5 -47 -10 -50 -6 -3 -10 -26 -10 -50 0
-24 -4 -47 -10 -50 -5 -3 -10 -26 -10 -50 0 -24 -4 -47 -10 -50 -5 -3 -10 -30
-10 -60 0 -30 -4 -57 -10 -60 -5 -3 -10 -26 -10 -50 0 -24 -5 -47 -10 -50 -6
-3 -10 -30 -10 -60 0 -30 -5 -57 -10 -60 -5 -3 -10 -30 -10 -60 0 -30 -4 -57
-10 -60 -5 -3 -10 -30 -10 -60 0 -30 -4 -57 -10 -60 -5 -3 -10 -39 -10 -80 0
-41 -4 -77 -10 -80 -5 -3 -10 -39 -10 -80 0 -41 -4 -77 -10 -80 -6 -3 -10 -48
-10 -100 0 -52 -4 -97 -10 -100 -5 -3 -10 -48 -10 -99 0 -60 -4 -96 -12 -105
-10 -9 -13 -113 -13 -450 0 -373 3 -441 15 -456 22 -26 23 -1383 1 -1409 -19
-23 -22 -809 -3 -828 6 -6 12 -26 12 -43 0 -17 4 -35 9 -40 14 -16 36 -1274
22 -1288 -7 -7 -11 -70 -11 -183 0 -105 -4 -175 -10 -179 -14 -8 -14 -462 0
-470 6 -4 10 -72 10 -170 0 -98 4 -166 10 -170 6 -4 10 -75 10 -180 0 -105 4
-176 10 -180 6 -4 10 -58 10 -130 0 -72 4 -126 10 -130 6 -3 10 -44 10 -90 0
-46 5 -87 10 -90 6 -3 10 -44 10 -90 0 -46 5 -87 10 -90 5 -3 10 -39 10 -80 0
-41 4 -77 10 -80 5 -3 10 -26 10 -50 0 -24 4 -47 10 -50 5 -3 10 -30 10 -60 0
-30 5 -57 10 -60 6 -3 10 -26 10 -50 0 -24 5 -47 10 -50 6 -3 10 -26 10 -50 0
-24 4 -47 10 -50 5 -3 10 -21 10 -40 0 -19 5 -37 10 -40 6 -3 10 -21 10 -40 0
-19 4 -37 10 -40 5 -3 10 -21 10 -40 0 -19 5 -37 10 -40 6 -3 10 -17 10 -30 0
-13 5 -27 10 -30 6 -3 10 -21 10 -40 0 -19 4 -37 10 -40 5 -3 10 -17 10 -30 0
-13 5 -27 10 -30 6 -3 10 -17 10 -30 0 -13 5 -27 10 -30 6 -3 10 -17 10 -30 0
-13 5 -27 10 -30 6 -3 10 -15 10 -25 0 -11 9 -35 20 -55 11 -20 20 -42 20 -49
0 -8 13 -40 30 -71 17 -31 30 -62 30 -69 0 -15 124 -262 142 -284 8 -9 31 -51
52 -94 20 -42 43 -82 51 -88 8 -7 15 -18 15 -25 0 -6 9 -20 20 -30 11 -10 20
-23 20 -30 0 -7 9 -20 20 -30 11 -10 20 -23 20 -30 0 -7 9 -20 20 -30 11 -10
20 -23 20 -29 0 -7 27 -38 60 -71 33 -33 60 -65 60 -71 0 -15 343 -346 368
-355 9 -4 28 -19 41 -33 14 -14 29 -26 35 -26 5 0 22 -12 37 -26 15 -15 38
-32 50 -38 47 -24 45 -39 -14 -95 -54 -51 -107 -136 -107 -172 0 -10 -5 -21
-10 -24 -6 -3 -10 -33 -10 -66 0 -32 -6 -68 -12 -79 -10 -16 -10 -24 0 -40 6
-11 12 -51 12 -89 0 -39 5 -73 10 -76 6 -3 10 -14 10 -23 0 -22 87 -197 106
-212 8 -7 14 -18 14 -24 0 -15 162 -176 176 -176 7 0 17 -6 23 -14 20 -24 234
-126 263 -126 15 0 30 -4 33 -10 4 -6 70 -10 165 -10 95 0 161 4 165 10 3 6
26 10 50 10 24 0 47 5 50 10 3 6 17 10 30 10 13 0 27 4 30 10 3 5 17 10 30 10
13 0 27 5 30 10 3 6 21 10 40 10 19 0 37 5 40 10 3 6 17 10 30 10 13 0 27 5
30 10 3 6 17 10 30 10 13 0 27 5 30 10 4 6 55 10 120 10 65 0 116 4 120 10 3
6 14 10 24 10 23 0 75 26 91 45 7 8 18 15 24 15 15 0 164 150 179 180 18 35
43 47 67 32 11 -6 42 -12 69 -12 28 0 53 -4 56 -10 3 -5 39 -10 80 -10 41 0
77 -4 80 -10 3 -5 44 -10 90 -10 46 0 87 -4 90 -10 3 -5 44 -10 90 -10 46 0
87 -4 90 -10 4 -6 58 -10 130 -10 72 0 126 -4 130 -10 8 -13 302 -13 310 0 3
6 52 10 110 10 58 0 107 4 110 10 3 6 26 10 50 10 24 0 47 5 50 10 3 6 26 10
50 10 24 0 47 5 50 10 3 6 17 10 30 10 13 0 27 4 30 10 3 5 17 10 30 10 13 0
27 5 30 10 3 6 17 10 30 10 13 0 27 4 30 10 3 5 15 10 25 10 11 0 35 9 55 20
20 11 44 20 55 20 10 0 22 5 25 10 3 6 21 10 40 10 19 0 37 5 40 10 3 6 17 10
30 10 13 0 27 5 30 10 3 6 17 10 30 10 13 0 27 5 30 10 3 6 21 10 40 10 19 0
37 5 40 10 3 6 21 10 40 10 19 0 37 5 40 10 3 6 21 10 40 10 19 0 37 5 40 10
3 5 21 10 40 10 19 0 37 4 40 10 3 5 21 10 40 10 19 0 37 5 40 10 3 6 21 10
40 10 19 0 37 5 40 10 3 6 26 10 50 10 24 0 47 5 50 10 3 6 26 10 50 10 24 0
47 4 50 10 3 5 26 10 50 10 24 0 47 4 50 10 3 5 26 10 50 10 24 0 47 4 50 10
3 5 26 10 50 10 24 0 47 5 50 10 3 6 26 10 50 10 24 0 47 4 50 10 3 5 26 10
50 10 24 0 47 5 50 10 3 6 26 10 50 10 24 0 47 5 50 10 3 6 26 10 50 10 24 0
47 5 50 10 3 6 30 10 60 10 30 0 57 5 60 10 3 6 30 10 60 10 30 0 57 4 60 10
3 5 35 10 70 10 35 0 67 4 70 10 3 6 26 10 50 10 24 0 47 4 50 10 3 5 26 10
50 10 24 0 47 5 50 10 3 6 30 10 60 10 30 0 57 5 60 10 3 6 26 10 50 10 24 0
47 5 50 10 3 6 21 10 40 10 19 0 37 5 40 10 3 6 21 10 40 10 19 0 37 4 40 10
3 5 26 10 50 10 24 0 47 4 50 10 3 5 21 10 40 10 19 0 37 4 40 10 3 5 17 10
30 10 13 0 27 5 30 10 3 6 21 10 40 10 19 0 37 5 40 10 3 6 17 10 30 10 13 0
27 5 30 10 3 6 21 10 40 10 19 0 37 5 40 10 3 6 17 10 30 10 13 0 27 5 30 10
3 6 17 10 30 10 13 0 27 4 30 10 3 5 17 10 30 10 13 0 27 5 30 10 3 6 17 10
30 10 13 0 27 5 30 10 3 6 17 10 30 10 13 0 27 5 30 10 3 6 14 10 25 10 10 0
44 14 75 30 31 17 63 30 71 30 7 0 29 9 49 20 20 11 41 20 48 20 18 0 354 170
368 186 6 8 17 14 24 14 7 0 18 7 25 15 7 9 32 25 55 35 23 10 48 26 55 35 7
8 18 15 25 15 6 0 20 9 30 20 10 11 23 20 30 20 7 0 20 9 30 20 10 11 23 20
30 20 6 0 24 13 40 30 16 16 34 30 40 30 6 0 24 13 40 30 16 16 34 30 40 30 6
0 37 27 70 60 33 33 64 60 70 60 13 0 375 362 375 375 0 6 27 37 60 70 33 33
60 64 60 70 0 6 23 33 50 60 28 27 50 54 50 60 0 6 14 24 30 40 17 16 30 34
30 40 0 6 14 24 30 40 17 16 30 34 30 40 0 7 9 20 20 30 11 10 20 23 20 30 0
7 9 20 20 30 11 10 20 23 20 30 0 7 9 20 20 30 11 10 20 23 20 30 0 7 9 20 20
30 11 10 20 23 20 30 0 7 9 20 20 30 11 10 20 23 20 30 0 7 9 20 20 30 11 10
20 24 20 30 0 7 7 18 15 25 9 7 25 32 35 55 10 23 26 48 35 55 8 7 15 18 15
25 0 7 7 18 15 25 8 7 29 41 45 76 17 35 35 66 40 69 5 3 23 35 40 70 17 35
35 67 40 70 5 3 23 35 40 70 17 35 35 67 39 70 5 3 35 58 67 122 31 65 64 126
72 135 18 22 102 189 102 203 0 7 23 56 50 110 28 54 50 104 50 111 0 6 13 38
30 69 16 31 30 63 30 71 0 7 9 29 20 49 11 20 20 42 20 50 0 8 9 30 20 50 11
20 20 42 20 50 0 8 9 30 20 50 11 20 20 44 20 55 0 10 5 22 10 25 6 3 10 15
10 25 0 11 9 35 20 55 11 20 20 44 20 55 0 10 5 22 10 25 5 3 10 17 10 30 0
13 5 27 10 30 5 3 10 17 10 30 0 13 5 27 10 30 5 3 10 17 10 30 0 13 4 27 10
30 5 3 10 17 10 30 0 13 4 27 10 30 5 3 10 17 10 30 0 13 5 27 10 30 6 3 10
21 10 40 0 19 4 37 10 40 5 3 10 17 10 30 0 13 4 27 10 30 6 3 10 17 10 30 0
13 5 27 10 30 6 3 10 21 10 40 0 19 5 37 10 40 6 3 10 17 10 30 0 13 5 27 10
30 6 3 10 21 10 40 0 19 5 37 10 40 5 3 10 21 10 40 0 19 5 37 10 40 6 3 10
26 10 50 0 24 5 47 10 50 6 3 10 21 10 40 0 19 5 37 10 40 6 3 10 21 10 40 0
19 5 37 10 40 6 3 10 26 10 50 0 24 5 47 10 50 5 3 10 26 10 50 0 24 5 47 10
50 6 3 10 26 10 50 0 24 5 47 10 50 6 3 10 30 10 60 0 30 5 57 10 60 6 3 10
35 10 70 0 35 5 67 10 70 6 3 10 39 10 80 0 41 4 77 10 80 6 3 10 48 10 100 0
52 4 97 10 100 6 4 10 55 10 120 0 65 4 116 10 120 6 4 10 93 10 235 0 142 -4
231 -10 235 -6 4 -10 61 -10 139 0 76 -4 136 -10 142 -7 7 -9 177 -6 505 4
487 9 605 27 623 5 6 9 52 9 102 0 51 5 96 10 99 6 4 10 55 10 120 0 65 4 116
10 120 6 4 10 73 10 175 0 102 -4 171 -10 175 -5 3 -10 35 -10 70 0 35 -4 67
-10 70 -7 4 -10 270 -10 765 0 495 3 761 10 765 6 3 10 48 10 100 0 52 4 97
10 100 6 4 10 103 10 265 0 162 -4 261 -10 265 -6 3 -10 52 -10 110 0 58 -4
107 -10 110 -6 3 -10 52 -10 110 0 58 -4 107 -10 110 -5 3 -10 30 -10 60 0 30
-4 57 -10 60 -5 3 -10 21 -10 40 0 19 -4 37 -10 40 -5 3 -10 26 -10 50 0 24
-4 47 -10 50 -5 3 -10 21 -10 40 0 19 -4 37 -10 40 -5 3 -10 15 -10 25 0 11
-9 35 -20 55 -11 20 -20 44 -20 55 0 10 -4 22 -10 25 -5 3 -10 15 -10 25 0 11
-9 35 -20 55 -11 20 -20 42 -20 49 0 7 -18 48 -40 91 -22 43 -40 83 -40 89 0
15 -564 1143 -582 1164 -8 9 -27 43 -42 74 -15 32 -32 60 -37 63 -5 4 -18 25
-29 48 -26 54 -54 103 -70 122 -22 26 -140 268 -140 287 0 9 -4 20 -10 23 -5
3 -10 15 -10 25 0 11 -9 35 -20 55 -11 20 -20 44 -20 55 0 10 -4 22 -10 25 -5
3 -10 14 -10 24 0 9 -16 48 -34 86 -37 72 -102 146 -150 170 -33 17 -171 21
-181 5 -3 -5 -16 -10 -29 -10 -37 0 -126 -105 -126 -149 0 -11 -4 -23 -10 -26
-5 -3 -10 -26 -10 -50 0 -24 -4 -47 -10 -50 -5 -3 -10 -30 -10 -60 0 -30 -4
-57 -10 -60 -5 -3 -10 -26 -10 -50 0 -24 -4 -47 -10 -50 -5 -3 -10 -26 -10
-50 0 -24 -4 -47 -10 -50 -5 -3 -10 -21 -10 -40 0 -19 -4 -37 -10 -40 -5 -3
-10 -21 -10 -40 0 -19 -4 -37 -10 -40 -5 -3 -10 -24 -10 -45 0 -21 -4 -42 -10
-45 -5 -3 -10 -17 -10 -30 0 -13 -4 -27 -10 -30 -5 -3 -10 -21 -10 -40 0 -19
-4 -37 -10 -40 -5 -3 -10 -21 -10 -40 0 -19 -4 -37 -10 -40 -5 -3 -10 -21 -10
-40 0 -19 -4 -37 -10 -40 -5 -3 -10 -21 -10 -40 0 -19 -4 -37 -10 -40 -5 -3
-10 -21 -10 -40 0 -19 -4 -37 -10 -40 -5 -3 -10 -21 -10 -40 0 -19 -4 -37 -10
-40 -5 -3 -10 -21 -10 -40 0 -19 -4 -37 -10 -40 -5 -3 -10 -26 -10 -50 0 -24
-4 -47 -10 -50 -5 -3 -10 -30 -10 -60 0 -30 -4 -57 -10 -60 -5 -3 -10 -26 -10
-50 0 -24 -4 -47 -10 -50 -5 -3 -10 -30 -10 -60 0 -30 -4 -57 -10 -60 -5 -3
-10 -39 -10 -80 0 -41 -4 -77 -10 -80 -5 -3 -10 -44 -10 -90 0 -46 -4 -87 -10
-90 -6 -4 -10 -127 -10 -335 0 -208 4 -331 10 -335 7 -4 10 -283 10 -805 0
-522 -3 -801 -10 -805 -6 -4 -10 -55 -10 -120 0 -65 -4 -116 -10 -120 -6 -4
-10 -57 -10 -125 0 -68 4 -121 10 -125 6 -3 10 -48 10 -100 0 -52 4 -97 10
-100 6 -3 10 -28 10 -56 0 -27 4 -57 10 -67 14 -26 42 -1126 34 -1330 -4 -95
-11 -175 -16 -178 -4 -3 -8 -36 -8 -75 0 -53 -3 -69 -14 -69 -8 0 -18 5 -21
10 -3 6 -19 10 -36 10 l-29 0 0 114 c0 66 4 117 10 121 6 4 10 83 10 205 0
122 -4 201 -10 205 -6 3 -10 52 -10 110 0 58 -4 107 -10 110 -5 3 -10 39 -10
80 0 41 -4 77 -10 80 -5 3 -10 44 -10 90 0 46 -4 87 -10 90 -5 3 -10 30 -10
60 0 30 -4 57 -10 60 -5 3 -10 26 -10 50 0 24 -4 47 -10 50 -5 3 -10 26 -10
50 0 24 -4 47 -10 50 -5 3 -10 26 -10 50 0 24 -4 47 -10 50 -5 3 -10 26 -10
50 0 24 -4 47 -10 50 -5 3 -10 21 -10 40 0 19 -4 37 -10 40 -5 3 -10 21 -10
40 0 19 -4 37 -10 40 -5 3 -10 17 -10 30 0 13 -4 27 -10 30 -5 3 -10 17 -10
30 0 13 -4 27 -10 30 -5 3 -10 17 -10 30 0 13 -4 27 -10 30 -5 3 -10 17 -10
30 0 13 -4 27 -10 30 -5 3 -10 17 -10 30 0 13 -4 27 -10 30 -5 3 -10 15 -10
25 0 11 -9 35 -20 55 -11 20 -20 42 -20 50 0 8 -9 30 -20 50 -11 20 -20 41
-20 48 0 17 -104 223 -123 245 -48 54 -126 429 -187 901 -28 217 -30 258 -30
542 0 195 4 310 10 314 6 4 10 58 10 130 0 72 4 126 10 130 6 4 10 82 10 200
0 118 4 196 10 200 6 3 10 42 10 85 0 43 -4 82 -10 85 -6 4 -10 62 -10 140 0
78 -4 136 -10 140 -5 3 -10 35 -10 70 0 35 -4 67 -10 70 -5 3 -10 30 -10 60 0
30 -4 57 -10 60 -5 3 -10 26 -10 50 0 24 -4 47 -10 50 -5 3 -10 21 -10 40 0
19 -4 37 -10 40 -5 3 -10 21 -10 40 0 19 -4 37 -10 40 -5 3 -10 24 -10 46 0
21 -4 48 -10 59 -5 11 -14 29 -20 40 -5 11 -10 33 -10 49 0 17 -4 33 -10 36
-5 3 -10 17 -10 30 0 13 -4 27 -10 30 -5 3 -10 17 -10 30 0 13 -4 27 -10 30
-5 3 -10 17 -10 30 0 13 -4 27 -10 30 -5 3 -10 14 -10 25 0 10 -13 44 -30 75
-16 31 -30 63 -30 70 0 7 -13 39 -30 70 -16 31 -30 63 -30 69 0 17 -29 74 -41
81 -5 4 -18 25 -29 49 -10 23 -26 49 -35 56 -8 7 -15 18 -15 25 0 6 -9 20 -20
30 -11 10 -20 23 -20 30 0 6 -18 29 -40 50 -22 21 -40 44 -40 50 0 6 -31 42
-70 80 -38 38 -70 74 -70 80 0 6 -36 46 -80 90 -44 44 -80 84 -80 90 0 13
-382 395 -395 395 -6 0 -33 23 -60 50 -27 28 -54 50 -60 50 -6 0 -37 27 -70
60 -33 33 -64 60 -70 60 -6 0 -37 27 -70 60 -33 33 -64 60 -71 60 -6 0 -19 9
-29 20 -10 11 -24 20 -30 20 -7 0 -18 7 -25 15 -22 26 -72 45 -121 45 -26 0
-51 5 -54 10 -3 6 -10 10 -15 10 -5 0 -12 -4 -15 -10z m174 -4897 c431 -299
838 -715 1138 -1164 198 -296 350 -701 407 -1089 44 -299 41 -591 -15 -1170
-72 -761 -45 -1147 114 -1615 56 -164 79 -221 217 -535 186 -424 229 -544 279
-770 95 -425 141 -834 141 -1227 -1 -362 -14 -522 -64 -784 -51 -268 -69 -416
-60 -495 6 -48 9 -54 30 -54 12 0 37 12 54 26 56 48 90 135 125 328 20 109 48
178 87 211 38 32 59 31 97 -1 44 -37 76 -96 117 -215 32 -94 36 -120 45 -274
9 -163 28 -267 50 -280 26 -16 83 69 106 158 20 81 14 184 -27 432 -53 314
-43 371 135 765 300 665 405 1064 405 1542 0 356 -59 634 -240 1128 -153 416
-182 500 -226 643 -189 622 -190 1134 -4 1943 23 98 79 330 125 514 46 184 98
394 116 465 36 149 61 205 89 205 25 0 48 -35 104 -165 66 -151 178 -366 408
-785 209 -382 304 -561 386 -735 28 -60 76 -155 107 -210 160 -292 259 -628
317 -1085 18 -144 18 -809 0 -980 -86 -805 -297 -1610 -629 -2400 -314 -747
-848 -1630 -1289 -2130 -720 -816 -1508 -1186 -3064 -1439 -321 -52 -1097
-208 -1345 -271 -234 -58 -454 -125 -625 -190 -209 -79 -396 -110 -665 -110
-178 0 -292 9 -681 55 -285 33 -297 35 -518 100 -768 223 -1338 492 -1766 831
-123 97 -373 353 -460 469 -290 388 -512 894 -634 1440 -93 420 -129 734 -182
1615 -37 605 1 1236 117 1922 63 381 188 987 224 1093 128 376 333 429 522
137 89 -138 133 -235 273 -602 101 -264 155 -385 229 -515 32 -55 79 -140 106
-190 276 -517 697 -1079 1215 -1620 357 -373 597 -734 734 -1100 118 -317 139
-625 75 -1113 -21 -165 -16 -246 18 -284 47 -53 123 21 152 147 41 186 63 488
50 704 -33 527 -227 985 -628 1481 -96 119 -152 182 -441 500 -344 379 -453
521 -555 725 -132 263 -144 376 -81 718 73 399 155 736 235 962 74 210 184
390 262 430 36 19 102 19 138 0 75 -38 199 -220 258 -377 62 -164 90 -298 139
-669 48 -368 92 -541 143 -572 50 -29 85 -17 105 37 5 16 21 -4 78 -98 l70
-118 -16 -77 c-79 -376 -80 -831 0 -1293 50 -296 181 -785 314 -1173 30 -88
149 -496 269 -927 34 -119 75 -280 92 -358 35 -162 54 -212 99 -263 27 -31 35
-35 52 -26 11 6 29 31 40 57 18 39 20 58 14 126 -7 93 -55 290 -119 491 -45
137 -248 859 -346 1225 -220 824 -305 1389 -272 1800 13 161 44 337 66 380 46
88 139 114 235 65 64 -32 181 -150 228 -228 57 -95 126 -261 237 -572 138
-383 160 -458 310 -1045 179 -703 224 -850 390 -1280 109 -284 164 -398 218
-454 76 -80 137 -67 137 28 0 41 -15 87 -259 765 -116 322 -208 625 -221 724
-9 64 -9 120 -1 219 7 73 16 234 21 358 22 497 96 828 263 1170 139 285 303
351 378 151 47 -126 53 -194 48 -531 -9 -707 -9 -710 62 -1285 52 -426 82
-546 174 -703 97 -166 264 -305 326 -271 33 17 19 70 -39 148 -24 33 -23 32
49 -17 111 -75 222 -125 299 -134 21 -3 27 -11 40 -62 17 -69 41 -91 64 -61
37 48 54 137 60 305 19 495 104 925 263 1334 54 137 122 247 200 323 59 56
110 76 138 53 22 -18 35 -77 35 -161 0 -45 5 -80 12 -87 30 -30 148 -2 266 64
54 31 70 35 104 30 84 -14 164 31 193 109 16 39 23 46 67 61 61 20 147 15 203
-11 48 -23 181 -152 220 -215 135 -215 169 -405 89 -500 -31 -36 -37 -36 -185
-10 -244 43 -333 19 -395 -102 -56 -110 -68 -239 -34 -350 33 -109 88 -179
295 -383 106 -104 198 -199 203 -210 24 -48 23 -110 -3 -245 -27 -135 -28
-196 -3 -212 45 -28 121 18 163 101 56 111 122 390 176 741 31 197 34 679 6
860 -71 451 -199 778 -462 1175 -51 77 -195 277 -322 445 -349 465 -393 533
-476 735 -122 299 -170 561 -170 935 0 415 48 721 248 1576 80 341 89 427 82
759 -8 338 -36 556 -124 955 -57 257 -86 347 -174 532 -65 136 -93 218 -74
218 4 0 51 -30 104 -67z m-5648 -11299 c29 -9 97 -38 150 -64 135 -68 299
-136 629 -261 157 -59 335 -126 395 -149 61 -22 116 -43 124 -46 20 -6 -33
-60 -132 -134 -73 -55 -80 -58 -109 -48 -55 19 -164 2 -332 -52 -253 -81 -310
-94 -416 -94 -92 0 -99 1 -196 46 -118 53 -169 86 -240 156 -110 108 -173 237
-182 367 -8 131 34 236 111 278 40 22 126 22 198 1z"/>
<path d="M9616 3430 c-35 -43 -49 -101 -41 -174 8 -63 36 -160 62 -211 50 -96
238 -336 287 -366 41 -25 58 -24 87 7 56 60 20 164 -116 333 -92 113 -117 162
-140 266 -37 168 -81 214 -139 145z"/>
<path d="M10036 2544 c-57 -58 -56 -153 5 -299 33 -80 77 -138 120 -161 31
-15 68 -11 81 10 18 27 6 93 -32 175 -25 55 -43 113 -50 159 -14 103 -38 142
-84 142 -8 0 -25 -12 -40 -26z"/>
</g>
</svg>
